<?xml version="1.0" encoding="UTF-8"?>
<svg version="1.1" xmlns="http://www.w3.org/2000/svg" width="500" height="500">
<path d="M0 0 C165 0 330 0 500 0 C500 165 500 330 500 500 C335 500 170 500 0 500 C0 335 0 170 0 0 Z " fill="transparent" transform="translate(0,0)"/>
<path d="M0 0 C35.31 0 70.62 0 107 0 C106 13 106 13 104 16 C101.49609375 16.7734375 101.49609375 16.7734375 98.4375 17.375 C93.3205398 18.5312362 89.2959553 20.17566993 84.83984375 22.9140625 C83 24 83 24 80 25 C80.03729907 44.52485277 80.09735294 64.04951216 80.18390274 83.57421017 C80.22357607 92.64151716 80.25602765 101.70873883 80.27099609 110.77612305 C80.28407369 118.68667582 80.31119242 126.59703994 80.35461307 134.5074864 C80.37709172 138.68931576 80.39291895 142.87091364 80.39188385 147.05280876 C80.08375595 178.60355548 80.08375595 178.60355548 92.1875 207.25 C103.61772491 218.42621991 118.2942779 220.29446292 133.55151367 220.31689453 C140.97715804 220.21781255 147.29519229 219.39483935 154 216 C155.22203125 215.38125 155.22203125 215.38125 156.46875 214.75 C167.08080906 208.52425869 172.0570628 197.39308539 175.1875 185.9375 C177.18886609 176.80491583 177.13888985 167.69512869 177.11352539 158.39233398 C177.11324286 156.93289695 177.11340254 155.47345978 177.1139679 154.01402283 C177.1142533 150.07665219 177.10839824 146.13931239 177.10139394 142.20194888 C177.09511749 138.07799866 177.09455322 133.95404764 177.09336853 129.83009338 C177.09026782 122.03179034 177.0820715 114.23350141 177.07201904 106.43520457 C177.06081866 97.55245822 177.05533758 88.66971118 177.05032361 79.78695953 C177.03988778 61.5246317 177.02231286 43.26231699 177 25 C175.42333268 24.19037565 173.84414025 23.38566763 172.26391602 22.58300781 C171.38478043 22.13435364 170.50564484 21.68569946 169.59986877 21.22344971 C166.08119547 19.56762774 162.72066476 18.65826743 158.9375 17.75 C152.09852375 16.09852375 152.09852375 16.09852375 151 15 C151.33 10.05 151.66 5.1 152 0 C180.71 0 209.42 0 239 0 C238 12 238 12 236 15 C233.2421875 16.2109375 233.2421875 16.2109375 229.875 17.375 C224.36066664 19.3840982 219.87834617 21.77845064 215 25 C214.34 25 213.68 25 213 25 C213.00368717 25.74947025 213.00737434 26.49894051 213.01117325 27.27112198 C213.0999146 45.59581233 213.16589801 63.9204592 213.20724869 82.24531937 C213.22778244 91.10747292 213.25572485 99.96948213 213.30175781 108.83154297 C213.34190957 116.56513634 213.36749936 124.29862506 213.37635398 132.03231978 C213.38152134 136.11874731 213.39346888 140.20487572 213.42292023 144.29120636 C213.62507064 173.49026041 212.52278141 202.15901415 191.4140625 224.6796875 C173.33462198 242.05701383 148.84757884 245.37454769 124.91235352 245.37060547 C121.96766263 245.37495544 119.02450299 245.41130876 116.08007812 245.44921875 C89.95593238 245.60496259 64.81628957 239.67193286 45.28515625 221.37890625 C30.06218121 205.5313989 26.8189309 186.10286907 26.92163086 165.03442383 C26.92515164 163.52413548 26.92811724 162.01384575 26.93057251 160.5035553 C26.9362225 157.26463283 26.94422261 154.02572746 26.95359612 150.78681374 C26.96682248 145.66422533 26.96503003 140.54171169 26.95936584 135.41911316 C26.95844576 134.55298757 26.95752568 133.68686198 26.95657772 132.79449016 C26.95360784 130.12926931 26.95044344 127.46404873 26.94726562 124.79882812 C26.93446538 113.77695986 26.93260102 102.75544876 26.97583008 91.73364258 C27.00730729 83.68097152 27.0106614 75.62884084 26.98107058 67.57615489 C26.96651765 63.31847973 26.9663572 59.06188659 27.00047112 54.80430031 C27.03225501 50.80393386 27.02688124 46.80534615 26.99296951 42.80501366 C26.98714899 41.33805602 26.99499759 39.87097046 27.01756096 38.4041748 C27.43482115 30.67463285 27.43482115 30.67463285 24.25549507 24.03960228 C22.19630141 22.71858746 20.30094115 21.81431204 18 21 C17.0409375 20.57332031 16.081875 20.14664063 15.09375 19.70703125 C9.76868372 17.87052496 4.49573257 16.24431681 -1 15 C-0.67 10.05 -0.34 5.1 0 0 Z " fill="#E3C395" transform="translate(131,125)"/>
<path d="M0 0 C0.66434056 -0.00380567 1.32868113 -0.00761134 2.01315323 -0.01153234 C4.2611485 -0.02191922 6.50889459 -0.01792904 8.75690746 -0.01409245 C10.37611918 -0.01854102 11.99532872 -0.0238538 13.61453503 -0.02996117 C18.08119841 -0.04419743 22.5477924 -0.0458034 27.01447523 -0.04536426 C31.82509302 -0.04700754 36.63568181 -0.06006486 41.44628429 -0.07155704 C51.97302494 -0.0944444 62.49974547 -0.10233167 73.02650762 -0.10738349 C79.59528642 -0.11063619 86.16405934 -0.11715607 92.73283482 -0.12438488 C110.90787379 -0.14395571 129.08290727 -0.16035708 147.25795746 -0.16326141 C149.00387221 -0.16354277 149.00387221 -0.16354277 150.78505797 -0.16382981 C153.14482097 -0.16419607 155.50458396 -0.16455976 157.86434696 -0.16492092 C159.0357918 -0.16510373 160.20723664 -0.16528654 161.4141798 -0.16547489 C163.17348338 -0.16574572 163.17348338 -0.16574572 164.96832844 -0.16602201 C183.97969533 -0.16956482 202.99094902 -0.19659174 222.00227664 -0.23397278 C241.50525421 -0.27201469 261.00817556 -0.29141859 280.51119107 -0.29172093 C291.46775954 -0.29230643 302.424193 -0.30085798 313.38072681 -0.32971859 C322.70936874 -0.3541775 332.03782643 -0.36155262 341.36649171 -0.34647106 C346.12866148 -0.33927958 350.89046706 -0.34025545 355.65259647 -0.36288166 C360.00950857 -0.38338474 364.3657745 -0.38095322 368.72267892 -0.36000682 C370.30143729 -0.35649519 371.88024147 -0.36149226 373.45893971 -0.37571125 C375.60107167 -0.3937662 377.74090452 -0.3811636 379.88296509 -0.36076355 C381.66925204 -0.36198523 381.66925204 -0.36198523 383.49162561 -0.3632316 C387.64838879 0.46225409 389.11601054 1.88968997 391.63024426 5.26006222 C392.25353807 8.10372752 392.25353807 8.10372752 392.25107002 11.28894234 C392.26225866 12.50640245 392.2734473 13.72386256 392.28497499 14.9782154 C392.2720925 16.32592747 392.25874242 17.67363514 392.24497509 19.02133846 C392.24858785 20.45554102 392.25439116 21.88973945 392.26219708 23.32392532 C392.27726862 27.26534672 392.26111769 31.20611928 392.23989046 35.14748967 C392.22242589 39.39766691 392.23377495 43.64777879 392.24155712 47.89797115 C392.25223714 56.22334547 392.23626925 64.54846717 392.21141886 72.87380298 C392.18351888 82.56232766 392.18214598 92.25080086 392.18197585 101.93935905 C392.18078809 119.2202238 392.15580219 136.5009723 392.1173048 153.78179073 C392.07994142 170.564357 392.05870813 187.34683872 392.05578136 204.12944698 C392.05559855 205.16349003 392.05541574 206.19753307 392.05522739 207.26291075 C392.05504842 208.29513755 392.05486945 209.32736435 392.05468506 210.39087075 C392.05431965 212.46901874 392.05394728 214.54716673 392.05356789 216.62531471 C392.05338237 217.65009392 392.05319686 218.67487313 392.05300572 219.73070626 C392.0494389 235.70682147 392.03099098 251.68292356 392.01107464 267.65902549 C392.00404358 273.45674934 391.99926577 279.25447009 391.99611329 285.0521973 C391.99107242 294.24534232 391.97969184 303.43842838 391.954813 312.631543 C391.94356235 316.83426742 391.93547823 321.03693367 391.93594646 325.23967457 C391.93625333 329.08173243 391.92739228 332.9236524 391.91097844 336.76567421 C391.90663717 338.16056482 391.90570612 339.55547075 391.90840452 340.95036551 C391.91154005 342.83648589 391.90132329 344.72261471 391.89030647 346.60870552 C391.88738009 348.18465627 391.88738009 348.18465627 391.88439459 349.79244441 C391.63024426 352.26006222 391.63024426 352.26006222 389.63024426 354.26006222 C387.014088 354.45762894 384.50369692 354.5293294 381.88634777 354.5140295 C381.07750669 354.51714948 380.2686656 354.52026947 379.43531418 354.52348399 C376.70985338 354.53149693 373.98461319 354.5251276 371.25915051 354.51885128 C369.31138509 354.52155968 367.3636207 354.52511976 365.41585827 354.5294714 C360.11433321 354.53861563 354.81288569 354.53504279 349.51135921 354.52871323 C343.97359279 354.52366373 338.43583319 354.52834174 332.89806652 354.53148556 C323.59686619 354.53512828 314.29569758 354.53031809 304.99450207 354.52080441 C294.22789658 354.50991928 283.46136683 354.51344464 272.69476318 354.52445722 C263.46503741 354.53352139 254.23533448 354.53481964 245.0056057 354.52957988 C239.48684669 354.52645538 233.96812332 354.52606394 228.44936657 354.53265285 C223.26199438 354.53841307 218.07472022 354.5344538 212.88735867 354.52286434 C210.97893086 354.52021064 209.07049486 354.52099487 207.16207027 354.52538967 C204.56598084 354.53081868 201.97020965 354.52404344 199.37414074 354.5140295 C198.6109229 354.51849095 197.84770506 354.52295239 197.06135941 354.52754903 C191.85854438 354.48836234 191.85854438 354.48836234 189.63024426 352.26006222 C189.38024426 349.76006222 189.38024426 349.76006222 189.63024426 347.26006222 C192.10024242 344.79006406 193.49162007 345.0220493 196.8619318 345.00190067 C197.96180015 345.01063867 197.96180015 345.01063867 199.08388805 345.01955318 C200.2474432 345.01698513 200.2474432 345.01698513 201.43450451 345.0143652 C204.05599532 345.01104062 206.67723362 345.02212469 209.29870129 345.03301144 C211.20128337 345.03362375 213.10386591 345.03335773 215.00644779 345.03228092 C220.11559732 345.03182818 225.22465374 345.04344549 230.33378124 345.05750179 C235.12262812 345.06886593 239.911452 345.06942663 244.70031261 345.07085323 C258.71863556 345.08136066 272.73694107 345.10928279 286.75524426 345.13506222 C318.06399426 345.17631222 349.37274426 345.21756222 381.63024426 345.26006222 C381.63024426 234.38006222 381.63024426 123.50006222 381.63024426 9.26006222 C256.23024426 9.26006222 130.83024426 9.26006222 1.63024426 9.26006222 C1.70947918 72.35749128 1.70947918 72.35749128 1.81042004 135.45488644 C1.81945324 147.63335323 1.81945324 147.63335323 1.82113171 153.32698727 C1.82300185 157.32025512 1.83052384 161.31347028 1.84139538 165.30672359 C1.85505774 170.39201697 1.85923697 175.47723312 1.85638881 180.56254315 C1.85698485 182.43406265 1.8609836 184.30558471 1.86867452 186.1770885 C1.87854546 188.69498864 1.87625274 191.21258432 1.87075329 193.73049068 C1.87657862 194.47151594 1.88240395 195.2125412 1.8884058 195.97602177 C1.85849391 201.03181257 1.85849391 201.03181257 -0.36975574 203.26006222 C-3.36975574 203.51006222 -3.36975574 203.51006222 -6.36975574 203.26006222 C-8.88024707 200.74957089 -8.6115742 199.22790481 -8.63724256 195.80277395 C-8.63278111 195.03566516 -8.62831967 194.26855638 -8.62372303 193.47820187 C-8.62684301 192.66527723 -8.62996299 191.85235259 -8.63317752 191.01479387 C-8.6411906 188.2755139 -8.63482107 185.53645343 -8.62854481 182.79717159 C-8.6312532 180.8395541 -8.63481328 178.88193762 -8.63916492 176.92432308 C-8.64830923 171.5959395 -8.64473628 166.26763307 -8.63840675 160.93924809 C-8.6333573 155.37345446 -8.63803526 149.80766762 -8.64117908 144.24187374 C-8.64482182 134.89359502 -8.64001159 125.54534787 -8.63049793 116.19707394 C-8.6196128 105.37593701 -8.62313816 94.55487543 -8.63415074 83.73374033 C-8.64321489 74.45730584 -8.64451318 65.1808941 -8.63927341 55.90445662 C-8.63614889 50.35775199 -8.63575752 44.81108283 -8.64234638 39.26438046 C-8.64810655 34.05074362 -8.64414742 28.83720432 -8.63255787 23.62357807 C-8.62990414 21.70547492 -8.63068844 19.78736361 -8.6350832 17.86926365 C-8.64051211 15.2600376 -8.63373709 12.6511282 -8.62372303 10.04192257 C-8.62818447 9.27481378 -8.63264592 8.50770499 -8.63724256 7.71735048 C-8.58410866 0.62727763 -6.76711345 0.01109076 0 0 Z " fill="#E3C395" transform="translate(58.36975574493408,74.7399377822876)"/>
</svg>
